#!OML:ASF E:\Style4\Style4.ASF
:FULLY-SPECIFIED
:DEGREES
3594
root -0.323634 17.7371 -2.36059 5.20452 -1.61856 1.65822
lowerback 10.2466 2.17876 -0.637397
upperback 4.77449 2.8218 0.119175
thorax -0.8138 1.39629 0.177994
lowerneck -0.218508 -4.88291 -6.45991
upperneck 3.39793 -6.58501 5.01211
head 1.53207 -3.30289 2.61466
rclavicle 8.34896e-015 -1.11319e-014
rhumerus -349.984 31.1525 -419.406
rradius 85.3402
rwrist -62.7892
rhand -17.6669 16.9931
rfingers 7.12502
rthumb 8.59179 -12.812
lclavicle 8.34896e-015 -1.11319e-014
lhumerus 8.62602 -38.7765 62.488
lradius 95.6914
lwrist 56.2654
lhand -6.99347 31.9882
lfingers 7.12502
lthumb 18.8771 61.0922
rfemur -22.6846 1.45757 17.1611
rtibia 35.861
rfoot -17.5757 -11.4811
rtoes -9.54039
lfemur -19.5029 1.37662 -20.497
ltibia 34.233
lfoot -19.8057 10.4932
ltoes -11.8318
3595
root -0.325106 17.7466 -2.3446 5.28094 -1.58095 1.62558
lowerback 10.1743 2.17918 -0.633085
upperback 4.74582 2.82343 0.115831
thorax -0.803781 1.3973 0.174148
lowerneck -0.140854 -4.85953 -6.49769
upperneck 3.26906 -6.55675 5.07297
head 1.47907 -3.28912 2.64564
rclavicle -4.1049e-014 1.86858e-014
rhumerus -351.392 32.7314 -420.009
rradius 87.0439
rwrist -62.542
rhand -17.7091 17.0417
rfingers 7.12502
rthumb 8.5511 -12.7651
lclavicle -4.1049e-014 1.86858e-014
lhumerus 7.53509 -39.8793 63.3554
lradius 96.579
lwrist 55.6986
lhand -6.59141 31.9673
lfingers 7.12502
lthumb 19.2638 61.0332
rfemur -22.564 1.51725 17.1945
rtibia 35.6138
rfoot -17.5422 -11.5497
rtoes -9.60655
lfemur -19.3861 1.30657 -20.4547
ltibia 33.9729
lfoot -19.7453 10.5545
ltoes -12.0925
3596
root -0.324153 17.7559 -2.3312 5.34242 -1.50396 1.65667
lowerback 10.1477 2.20418 -0.56642
upperback 4.73587 2.86114 0.0134615
thorax -0.791453 1.41813 0.0282149
lowerneck -0.131184 -4.91277 -6.33376
upperneck 3.18833 -6.62845 5.0727
head 1.44889 -3.32274 2.61466
rclavicle 5.46658e-015 -1.19271e-015
rhumerus -353.285 34.0875 -421.034
rradius 88.8975
rwrist -62.0028
rhand -17.5562 17.1226
rfingers 7.12502
rthumb 8.6986 -12.6781
lclavicle 5.46658e-015 -1.19271e-015
lhumerus 6.55968 -41.1545 64.0706
lradius 97.5872
lwrist 55.3313
lhand -6.53824 31.6324
lfingers 7.12502
lthumb 19.3149 60.6932
rfemur -22.4561 1.49954 17.1522
rtibia 35.3998
rfoot -17.4731 -11.6101
rtoes -9.57084
lfemur -19.2667 1.2184 -20.4949
ltibia 33.7206
lfoot -19.6495 10.6384
ltoes -12.6279
3597
root -0.324491 17.7641 -2.3203 5.3903 -1.43958 1.69893
lowerback 10.1317 2.24889 -0.578567
upperback 4.73415 2.91829 -0.0541826
thorax -0.781779 1.44721 -0.0401436
lowerneck -0.120009 -4.98678 -6.17549
upperneck 3.14234 -6.72619 5.00158
head 1.42828 -3.37039 2.56026
rclavicle 2.34566e-014 -1.27222e-014
rhumerus -355.035 35.3629 -422.035
rradius 90.5054
rwrist -61.2907
rhand -17.3578 17.2768
rfingers 7.12502
rthumb 8.89012 -12.5159
lclavicle 2.34566e-014 -1.27222e-014
lhumerus 5.47991 -42.4174 64.8927
lradius 98.4868
lwrist 54.9433
lhand -5.9848 31.441
lfingers 7.12502
lthumb 19.847 60.4477
rfemur -22.3638 1.50412 17.1069
rtibia 35.2236
rfoot -17.4305 -11.6948
rtoes -9.58508
lfemur -19.1826 1.13534 -20.5324
ltibia 33.5028
lfoot -19.5675 10.6529
ltoes -12.4448
3598
root -0.323858 17.7704 -2.31003 5.46249 -1.38354 1.70349
lowerback 10.0386 2.27415 -0.810978
upperback 4.74281 2.93446 0.0934165
thorax -0.741343 1.45054 0.244121
lowerneck -0.077427 -4.98461 -6.27407
upperneck 3.04413 -6.71865 4.9012
head 1.38832 -3.36914 2.54685
rclavicle 1.35174e-014 -5.1684e-015
rhumerus -356.238 36.8774 -422.507
rradius 91.8201
rwrist -60.5887
rhand -17.1466 17.4168
rfingers 7.12502
rthumb 9.09392 -12.3671
lclavicle 1.35174e-014 -5.1684e-015
lhumerus 4.13734 -43.4146 66.1789
lradius 99.2227
lwrist 54.3966
lhand -5.2016 31.3601
lfingers 7.12502
lthumb 20.5997 60.287
rfemur -22.3163 1.50496 17.0973
rtibia 35.0677
rfoot -17.4063 -11.7485
rtoes -9.61547
lfemur -19.1505 1.00905 -20.5336
ltibia 33.3308
lfoot -19.5645 10.677
ltoes -12.095
3599
root -0.324206 17.7739 -2.30022 5.52325 -1.30478 1.60867
lowerback 10.0151 2.24231 -0.828474
upperback 4.75656 2.89285 0.195913
thorax -0.719976 1.42845 0.365187
lowerneck -0.108828 -4.93701 -6.38246
upperneck 2.92792 -6.64774 4.84696
head 1.35418 -3.33487 2.55048
rclavicle 2.06736e-014 -3.97569e-015
rhumerus -357.184 38.4186 -422.986
rradius 92.9324
rwrist -60.0065
rhand -17.1603 17.5542
rfingers 7.12502
rthumb 9.08066 -12.2303
lclavicle 2.06736e-014 -3.97569e-015
lhumerus 2.74668 -44.2855 67.3669
lradius 99.9594
lwrist 53.6601
lhand -4.55956 31.2458
lfingers 7.12502
lthumb 21.2165 60.1047
rfemur -22.2615 1.49564 17.2071
rtibia 34.9364
rfoot -17.3514 -11.7189
rtoes -9.26669
lfemur -19.1206 0.928177 -20.4169
ltibia 33.2093
lfoot -19.5859 10.6606
ltoes -12.1046
3600
root -0.326229 17.7781 -2.28874 5.56166 -1.2177 1.54216
lowerback 10.0475 2.20584 -0.466303
upperback 4.76412 2.873 -0.0249968
thorax -0.700737 1.42598 -0.0637407
lowerneck -0.0922656 -4.92904 -6.27765
upperneck 2.80828 -6.6421 5.02674
head 1.31591 -3.32895 2.59306
rclavicle -1.83876e-014 9.54166e-015
rhumerus -358.576 39.6035 -424.232
rradius 94.0572
rwrist -59.288
rhand -17.2165 17.6258
rfingers 7.12502
rthumb 9.02639 -12.1611
lclavicle -1.83876e-014 9.54166e-015
lhumerus 1.52818 -45.4338 68.0381
lradius 100.648
lwrist 52.9001
lhand -3.8345 31.1538
lfingers 7.12502
lthumb 21.9129 59.9328
rfemur -22.177 1.49725 17.2867
rtibia 34.826
rfoot -17.3632 -11.7258
rtoes -8.86767
lfemur -19.0749 0.908734 -20.3396
ltibia 33.1204
lfoot -19.5567 10.6617
ltoes -12.246
